# xmcd CD database file
#
# Track frame offsets:
#	150
#	25235
#	53785
#	72602
#	92167
#	118785
#	141082
#	157337
#	182250
#	203970
#	224857
#	241215
#	260040
#	276597
#	301787
#
# Disc length: 4605 seconds
#
# Revision: 13
# Processed by: cddbd v1.5.2PL0 Copyright (c) Steve Scherf et al.
# Submitted via: CDex 1.70beta3
#
DISCID=ef11fb0f
DTITLE=B'z - The Ballads ～Love and B'z～
DYEAR=2002
DGENRE=J-Rock
TTITLE0=いつかのメリークリスマス
TTITLE1=ALONE
TTITLE2=今夜月の見える丘に
TTITLE3=HOME
TTITLE4=Calling
TTITLE5=TIME
TTITLE6=消えない虹
TTITLE7=月光
TTITLE8=ハピネス
TTITLE9=もう一度キスしたかった
TTITLE10=泣いて 泣いて 泣きやんだら
TTITLE11=ONE
TTITLE12=Everlasting
TTITLE13=GOLD
TTITLE14=SNOW
EXTD=YEAR: 2002
EXTT0=
EXTT1=
EXTT2=
EXTT3=
EXTT4=
EXTT5=
EXTT6=
EXTT7=
EXTT8=
EXTT9=
EXTT10=
EXTT11=
EXTT12=
EXTT13=
EXTT14=
PLAYORDER=
